<svg data-v-97fc22ee="" data-noselect="" viewBox="0 0 600 600" width="600" height="600" preserveAspectRatio="none" version="1.1" xmlns="http://www.w3.org/2000/svg" xmlns:xlink="http://www.w3.org/1999/xlink" class="svg-canvas" style=""><defs data-v-97fc22ee=""></defs> <g data-v-97fc22ee="" id="background" data-noselect=""><rect x="0" y="0" fill="#ffffff" width="600" height="600" data-noselect=""></rect> <!----></g><g data-v-97fc22ee="" mask=""><g data-v-97fc22ee="" transform="translate(-79.674958552517,-80.2) rotate(0,379.20829188586,379.20829188586) scale(1,1)" filter="" style="opacity: 1;"><g data-v-97fc22ee=""><rect fill="rgba(0,0,0,0)" width="778.4165837717" height="778.4165837717" x="-10" y="-10"></rect><svg data-noselect="" viewBox="287.58668797696816 88.96995734473273 224.82662404603445 224.82662404603445" width="758.4165837717" height="758.4165837717" ref="svg_canvas" preserveAspectRatio="none" version="1.1" xmlns="http://www.w3.org/2000/svg" style="background: transparent;" class="style-removed" data-parent="shape_bt2jwa1Okj">
    <defs></defs>
    <mask id="shape_K1D6CvI5lR_mask" is-reverse="false">
      <!-- 白色像素下的所有内容都将可见 -->
      
      <g transform="translate(321.21889155405717,122.60216092182179) rotate(45,78.78110844592821,78.78110844592817) scale(1,1)" filter="">
        <!--普通元素-->
        <svg id="图层_1" data-name="图层 1" xmlns="http://www.w3.org/2000/svg" viewBox="0 0 157.56221689185642 157.56221689185634" width="157.56221689185642" height="157.56221689185634" class="style-removed" preserveAspectRatio="none" data-parent="shape_K1D6CvI5lR"><title>未标题-3</title><rect width="157.56221689185642" height="157.56221689185634" class="radius-elem" x="0" y="0" fill="#ffffff" rx="55" ry="55" stroke-width="0"></rect></svg>
      </g>
      <!-- 黑色像素下的所有内容都将不可见 -->
    </mask>
        <g id="shape_rmWsq4SQbJ" class="icon custom-icon" ref="shape_rmWsq4SQbJ" key="shape_rmWsq4SQbJ" mask="">
          <g transform="translate(321.4521824671356,122.82444047500331) rotate(45,78.54779085580809,78.54779085580806) scale(1,1)" style="" filter="" cursor="move" display="inline" opacity="1">
              <g style="" display="inline"><svg id="图层_1" data-name="图层 1" xmlns="http://www.w3.org/2000/svg" viewBox="0 0 157.09558171161618 157.09558171161612" width="157.09558171161618" height="157.09558171161612" class="style-removed" preserveAspectRatio="none" data-parent="shape_rmWsq4SQbJ"><title>未标题-4</title><rect width="157.09558171161618" height="157.09558171161612" rx="55" id="radius-elem" x="0" y="0" fill="#0021c2" ry="55" stroke-width="0"></rect></svg></g>
          </g>
        </g>
        <g id="shape_R81EjJnIXy" class="icon custom-icon text brand_first" ref="shape_R81EjJnIXy" key="shape_R81EjJnIXy" mask="url(#shape_K1D6CvI5lR_mask)">
          <g transform="translate(-194.1369995764993,-411.9004224307748) rotate(0,594.4074888031932,635.4074888031932) scale(1,1)" style="" filter="" cursor="move" display="inline" opacity="1">
              <g style="" display="inline"><svg xmlns="http://www.w3.org/2000/svg" version="1.1" xmlns:xlink="http://www.w3.org/1999/xlink" width="1188.8149776063865" height="1270.8149776063865" viewBox="0 0 1188.8149776063865 1270.8149776063865" data-ligature="true" preserveAspectRatio="none" data-parent="shape_R81EjJnIXy"><g data-role="text" data-width="128.59875" data-height="211" transform="translate(530.1081138031932, 529.9074888031932)"><path d="M62.88-109.11L62.88-109.11L69.95-72.88L106.00-125.23L141.45-125.23L105.14-78.06L29.32-22.34Q34.33-27.77 38.04-33.12L38.04-33.12Q40.28-36.22 41.49-38.38Q42.69-40.54 43.56-42.82Q44.42-45.11 44.85-47.35Q45.28-49.59 44.76-51.49L44.76-51.49L31.65-99.96L84.01-138.43Q83.32-137.66 81.51-135.71Q79.69-133.77 77.32-131.10Q74.95-128.43 72.41-125.28Q69.86-122.13 67.75-119.11Q65.64-116.09 64.26-113.46Q62.88-110.83 62.88-109.11ZM35.45 0L41.40-24.15L114.28-77.71Q107.47-71.24 101.60-65.46L101.60-65.46Q98.15-62.01 95.95-59.77Q93.75-57.53 91.64-55.29Q89.53-53.04 87.80-51.06Q86.08-49.08 85.13-47.78L85.13-47.78Q83.49-45.37 81.98-42.69Q80.47-40.02 79.26-37.56Q78.06-35.10 77.24-33.25Q76.42-31.39 76.07-30.62L76.07-30.62L68.48 0L35.45 0ZM57.87-125.23L-0.52-82.28Q0.17-83.06 2.89-86.03Q5.61-89.01 8.93-92.85Q12.25-96.69 15.57-100.70Q18.89-104.71 20.87-107.55L20.87-107.55Q23.03-110.57 23.85-113.68Q24.67-116.78 24.93-119.28L24.93-119.28Q25.10-122.22 24.67-124.98L24.67-124.98L24.75-124.98L24.67-125.23L57.87-125.23Z" transform="translate(0 149) " fill="rgb(255, 255, 255)" stroke="rgb(255, 255, 255)" stroke-width="0.294" data-glyph-w="128.59875" data-glyph-h="176.64" data-glyph-ascender="132.48" data-glyph-descender="-44.16" data-kerning="0"></path></g></svg></g>
          </g>
        </g>
  </svg></g></g></g></svg>